<svg width="137" height="23" viewBox="0 0 137 23" fill="none" xmlns="http://www.w3.org/2000/svg">
<path d="M8.98438 0.140625C10.1641 0.140625 11.2773 0.246094 12.3242 0.457031C13.3711 0.667969 14.2852 0.960938 15.0664 1.33594C15.8555 1.71094 16.4805 2.16016 16.9414 2.68359C17.4023 3.20703 17.6328 3.78125 17.6328 4.40625V6.30469H14.5859V5.29688C14.5859 4.96094 14.457 4.64062 14.1992 4.33594C13.9414 4.03125 13.5703 3.76172 13.0859 3.52734C12.6094 3.29297 12.0234 3.10938 11.3281 2.97656C10.6406 2.83594 9.85938 2.76562 8.98438 2.76562C8.14062 2.76562 7.375 2.83203 6.6875 2.96484C6 3.09766 5.41016 3.27734 4.91797 3.50391C4.42578 3.73047 4.04688 4 3.78125 4.3125C3.51562 4.61719 3.38281 4.94531 3.38281 5.29688V12.8906C3.38281 13.2344 3.51562 13.5625 3.78125 13.875C4.04688 14.1797 4.42578 14.4492 4.91797 14.6836C5.41016 14.9102 6 15.0898 6.6875 15.2227C7.375 15.3555 8.14062 15.4219 8.98438 15.4219C9.85938 15.4219 10.6406 15.3555 11.3281 15.2227C12.0234 15.082 12.6094 14.8945 13.0859 14.6602C13.5703 14.4258 13.9414 14.1562 14.1992 13.8516C14.457 13.5469 14.5859 13.2266 14.5859 12.8906V11.2031C13.8594 11.2031 13.207 11.2227 12.6289 11.2617C12.0586 11.3008 11.5703 11.3398 11.1641 11.3789C10.6875 11.4336 10.2656 11.4922 9.89844 11.5547L10.2031 8.71875C11.3984 8.625 12.5234 8.57812 13.5781 8.57812C14.9922 8.57812 16.3438 8.64844 17.6328 8.78906V13.7812C17.6328 14.4062 17.4023 14.9805 16.9414 15.5039C16.4805 16.0195 15.8555 16.4648 15.0664 16.8398C14.2852 17.2148 13.3711 17.5078 12.3242 17.7188C11.2773 17.9219 10.1641 18.0234 8.98438 18.0234C7.80469 18.0234 6.69141 17.9219 5.64453 17.7188C4.59766 17.5078 3.67969 17.2148 2.89062 16.8398C2.10938 16.4648 1.48828 16.0195 1.02734 15.5039C0.566406 14.9805 0.335938 14.4062 0.335938 13.7812V4.40625C0.335938 3.78125 0.566406 3.20703 1.02734 2.68359C1.48828 2.16016 2.10938 1.71094 2.89062 1.33594C3.67969 0.960938 4.59766 0.667969 5.64453 0.457031C6.69141 0.246094 7.80469 0.140625 8.98438 0.140625ZM34.2266 13.2188C34.0312 13.0469 33.7891 12.8789 33.5 12.7148C33.2109 12.5508 32.8555 12.4062 32.4336 12.2812C32.0117 12.1484 31.5078 12.043 30.9219 11.9648C30.3438 11.8789 29.6641 11.8359 28.8828 11.8359C28.1875 11.8359 27.5273 11.8516 26.9023 11.8828C26.2852 11.9062 25.7422 11.9844 25.2734 12.1172C24.8047 12.2422 24.4336 12.4453 24.1602 12.7266C23.8867 13.0078 23.75 13.3984 23.75 13.8984V15.3984C24.4375 15.5078 25.1953 15.5977 26.0234 15.668C26.8516 15.7383 27.7734 15.7734 28.7891 15.7734C29.6016 15.7734 30.4648 15.7461 31.3789 15.6914C32.3008 15.6289 33.25 15.5078 34.2266 15.3281V13.2188ZM28.9531 4.64062C29.3438 4.64062 29.8164 4.66016 30.3711 4.69922C30.9258 4.73828 31.5039 4.80859 32.1055 4.91016C32.707 5.00391 33.3008 5.13672 33.8867 5.30859C34.4805 5.47266 35.0117 5.69141 35.4805 5.96484C35.957 6.23047 36.3398 6.55078 36.6289 6.92578C36.918 7.30078 37.0625 7.74219 37.0625 8.25V17.3203C36.4062 17.4531 35.6641 17.5664 34.8359 17.6602C34.125 17.7461 33.2773 17.8242 32.293 17.8945C31.3086 17.9648 30.2109 18 29 18C27.7969 18 26.5156 17.9492 25.1562 17.8477C23.8047 17.7461 22.3906 17.5703 20.9141 17.3203V13.1016C20.9141 12.6484 21.0195 12.2539 21.2305 11.918C21.4492 11.5742 21.7461 11.2812 22.1211 11.0391C22.4961 10.7969 22.9375 10.5977 23.4453 10.4414C23.9531 10.2852 24.5 10.1602 25.0859 10.0664C25.6719 9.97266 26.2812 9.91016 26.9141 9.87891C27.5469 9.83984 28.1797 9.82031 28.8125 9.82031C29.7734 9.82031 30.5898 9.88281 31.2617 10.0078C31.9414 10.125 32.5039 10.2539 32.9492 10.3945C33.4648 10.5664 33.8906 10.7578 34.2266 10.9688V9.07031C34.2266 8.75 34.1484 8.47656 33.9922 8.25C33.8359 8.01562 33.625 7.82031 33.3594 7.66406C33.0938 7.5 32.7891 7.37109 32.4453 7.27734C32.1016 7.17578 31.7422 7.09766 31.3672 7.04297C30.9922 6.98828 30.6094 6.95312 30.2188 6.9375C29.8359 6.92188 29.4766 6.91406 29.1406 6.91406C28.7891 6.91406 28.4141 6.92578 28.0156 6.94922C27.6172 6.96484 27.2188 7 26.8203 7.05469C26.4297 7.10938 26.0508 7.1875 25.6836 7.28906C25.3242 7.38281 25.0039 7.51172 24.7227 7.67578C24.4414 7.83984 24.2148 8.03906 24.043 8.27344C23.8789 8.5 23.7969 8.77344 23.7969 9.09375L20.8906 8.34375C20.8906 7.82031 21.0195 7.36719 21.2773 6.98438C21.5352 6.59375 21.875 6.26172 22.2969 5.98828C22.7266 5.71484 23.2188 5.49219 23.7734 5.32031C24.3281 5.14062 24.9023 5.00391 25.4961 4.91016C26.0977 4.80859 26.6953 4.73828 27.2891 4.69922C27.8828 4.66016 28.4375 4.64062 28.9531 4.64062ZM52.5547 4.54688C53.7578 4.54688 54.8438 4.64844 55.8125 4.85156C56.7812 5.04688 57.6055 5.34375 58.2852 5.74219C58.9648 6.14062 59.4883 6.63672 59.8555 7.23047C60.2227 7.81641 60.4062 8.5 60.4062 9.28125V18H57.3359V9.98438C57.3359 9.33594 57.1953 8.80859 56.9141 8.40234C56.6328 7.98828 56.2617 7.66406 55.8008 7.42969C55.3398 7.19531 54.8164 7.03516 54.2305 6.94922C53.6445 6.86328 53.0469 6.82031 52.4375 6.82031V18H49.6016V6.82031C49.0938 6.82031 48.6055 6.86328 48.1367 6.94922C47.6758 7.02734 47.2383 7.13672 46.8242 7.27734C46.4102 7.41797 46.0195 7.57812 45.6523 7.75781C45.2852 7.9375 44.9453 8.125 44.6328 8.32031V18H41.5625V8.32031C41.5312 8.07031 41.457 7.85938 41.3398 7.6875C41.2305 7.51562 41.1094 7.375 40.9766 7.26562C40.8281 7.13281 40.6641 7.02344 40.4844 6.9375L41.7969 4.64062C42.0859 4.74219 42.3711 4.875 42.6523 5.03906C42.8945 5.17969 43.1484 5.36328 43.4141 5.58984C43.6797 5.81641 43.9141 6.09375 44.1172 6.42188C44.75 6.03906 45.3594 5.72656 45.9453 5.48438C46.5312 5.23438 47.1484 5.04297 47.7969 4.91016C48.4453 4.76953 49.1523 4.67578 49.918 4.62891C50.6836 4.57422 51.5625 4.54688 52.5547 4.54688ZM72.5234 4.64062C72.9219 4.64062 73.4023 4.66016 73.9648 4.69922C74.5273 4.73828 75.1094 4.80859 75.7109 4.91016C76.3203 5.00391 76.9219 5.14062 77.5156 5.32031C78.1094 5.49219 78.6406 5.71484 79.1094 5.98828C79.5859 6.26172 79.9688 6.59375 80.2578 6.98438C80.5547 7.36719 80.7031 7.82031 80.7031 8.34375V12.3047H67.2734V15.3047C68.2188 15.4375 69.1289 15.5312 70.0039 15.5859C70.8789 15.6328 71.7188 15.6562 72.5234 15.6562C73.75 15.6562 74.8594 15.6094 75.8516 15.5156C76.8516 15.4219 77.7148 15.3164 78.4414 15.1992C79.2773 15.0664 80.0312 14.9141 80.7031 14.7422V17.3438C79.2188 17.5781 77.7852 17.7461 76.4023 17.8477C75.0273 17.9492 73.7344 18 72.5234 18C71.3047 18 70.1992 17.9688 69.207 17.9062C68.2148 17.8359 67.3633 17.7578 66.6523 17.6719C65.8242 17.5781 65.0781 17.4688 64.4141 17.3438V8.34375C64.4141 7.82031 64.543 7.36719 64.8008 6.98438C65.0586 6.59375 65.4023 6.26172 65.832 5.98828C66.2617 5.71484 66.7539 5.49219 67.3086 5.32031C67.8711 5.14062 68.4531 5.00391 69.0547 4.91016C69.6562 4.80859 70.2539 4.73828 70.8477 4.69922C71.4492 4.66016 72.0078 4.64062 72.5234 4.64062ZM67.2734 10.4297H77.7969V9.07031C77.7969 8.75 77.7188 8.47656 77.5625 8.25C77.4062 8.01562 77.1953 7.82031 76.9297 7.66406C76.6719 7.50781 76.3672 7.38281 76.0156 7.28906C75.6719 7.1875 75.3125 7.11328 74.9375 7.06641C74.5625 7.01172 74.1836 6.97656 73.8008 6.96094C73.4258 6.94531 73.0703 6.9375 72.7344 6.9375C72.3828 6.9375 72.0039 6.94531 71.5977 6.96094C71.1992 6.97656 70.7969 7.01172 70.3906 7.06641C69.9844 7.12109 69.5938 7.19922 69.2188 7.30078C68.8438 7.39453 68.5117 7.52344 68.2227 7.6875C67.9336 7.84375 67.7031 8.03906 67.5312 8.27344C67.3594 8.5 67.2734 8.77344 67.2734 9.09375V10.4297ZM95.2109 10.3945C93.2812 9.83984 91.875 9.16016 90.9922 8.35547C90.1172 7.54297 89.6797 6.54297 89.6797 5.35547C89.6797 4.01172 90.2148 2.90234 91.2852 2.02734C92.3633 1.14453 93.7617 0.703125 95.4805 0.703125C96.6523 0.703125 97.6953 0.929687 98.6094 1.38281C99.5312 1.83594 100.242 2.46094 100.742 3.25781C101.25 4.05469 101.504 4.92578 101.504 5.87109H99.2422C99.2422 4.83984 98.9141 4.03125 98.2578 3.44531C97.6016 2.85156 96.6758 2.55469 95.4805 2.55469C94.3711 2.55469 93.5039 2.80078 92.8789 3.29297C92.2617 3.77734 91.9531 4.45312 91.9531 5.32031C91.9531 6.01562 92.2461 6.60547 92.832 7.08984C93.4258 7.56641 94.4297 8.00391 95.8438 8.40234C97.2656 8.80078 98.375 9.24219 99.1719 9.72656C99.9766 10.2031 100.57 10.7617 100.953 11.4023C101.344 12.043 101.539 12.7969 101.539 13.6641C101.539 15.0469 101 16.1562 99.9219 16.9922C98.8438 17.8203 97.4023 18.2344 95.5977 18.2344C94.4258 18.2344 93.332 18.0117 92.3164 17.5664C91.3008 17.1133 90.5156 16.4961 89.9609 15.7148C89.4141 14.9336 89.1406 14.0469 89.1406 13.0547H91.4023C91.4023 14.0859 91.7812 14.9023 92.5391 15.5039C93.3047 16.0977 94.3242 16.3945 95.5977 16.3945C96.7852 16.3945 97.6953 16.1523 98.3281 15.668C98.9609 15.1836 99.2773 14.5234 99.2773 13.6875C99.2773 12.8516 98.9844 12.207 98.3984 11.7539C97.8125 11.293 96.75 10.8398 95.2109 10.3945ZM114.805 11.8008C114.805 13.7305 114.363 15.2852 113.48 16.4648C112.598 17.6445 111.402 18.2344 109.895 18.2344C108.355 18.2344 107.145 17.7461 106.262 16.7695V22.875H104.094V5.32031H106.074L106.18 6.72656C107.062 5.63281 108.289 5.08594 109.859 5.08594C111.383 5.08594 112.586 5.66016 113.469 6.80859C114.359 7.95703 114.805 9.55469 114.805 11.6016V11.8008ZM112.637 11.5547C112.637 10.125 112.332 8.99609 111.723 8.16797C111.113 7.33984 110.277 6.92578 109.215 6.92578C107.902 6.92578 106.918 7.50781 106.262 8.67188V14.7305C106.91 15.8867 107.902 16.4648 109.238 16.4648C110.277 16.4648 111.102 16.0547 111.711 15.2344C112.328 14.4062 112.637 13.1797 112.637 11.5547ZM116.996 11.543C116.996 10.3008 117.238 9.18359 117.723 8.19141C118.215 7.19922 118.895 6.43359 119.762 5.89453C120.637 5.35547 121.633 5.08594 122.75 5.08594C124.477 5.08594 125.871 5.68359 126.934 6.87891C128.004 8.07422 128.539 9.66406 128.539 11.6484V11.8008C128.539 13.0352 128.301 14.1445 127.824 15.1289C127.355 16.1055 126.68 16.8672 125.797 17.4141C124.922 17.9609 123.914 18.2344 122.773 18.2344C121.055 18.2344 119.66 17.6367 118.59 16.4414C117.527 15.2461 116.996 13.6641 116.996 11.6953V11.543ZM119.176 11.8008C119.176 13.207 119.5 14.3359 120.148 15.1875C120.805 16.0391 121.68 16.4648 122.773 16.4648C123.875 16.4648 124.75 16.0352 125.398 15.1758C126.047 14.3086 126.371 13.0977 126.371 11.543C126.371 10.1523 126.039 9.02734 125.375 8.16797C124.719 7.30078 123.844 6.86719 122.75 6.86719C121.68 6.86719 120.816 7.29297 120.16 8.14453C119.504 8.99609 119.176 10.2148 119.176 11.8008ZM134.199 2.25V5.32031H136.566V6.99609H134.199V14.8594C134.199 15.3672 134.305 15.75 134.516 16.0078C134.727 16.2578 135.086 16.3828 135.594 16.3828C135.844 16.3828 136.188 16.3359 136.625 16.2422V18C136.055 18.1562 135.5 18.2344 134.961 18.2344C133.992 18.2344 133.262 17.9414 132.77 17.3555C132.277 16.7695 132.031 15.9375 132.031 14.8594V6.99609H129.723V5.32031H132.031V2.25H134.199Z" fill="white"/>
</svg>
